<svg xmlns="http://www.w3.org/2000/svg" xmlns:xlink="http://www.w3.org/1999/xlink" xmlns:lucid="lucid" width="800" height="371.4"><g transform="translate(5.875806123604491 -34.20000000000002)" lucid:page-tab-id="0_0"><path d="M14.12 220h760v165.6h-760z" stroke="#000" stroke-opacity="0" stroke-width="2" fill="#fff" fill-opacity="0"/><use xlink:href="#a" transform="matrix(1,0,0,1,19.12419387639551,225) translate(72.33333333333337 95)"/><use xlink:href="#b" transform="matrix(1,0,0,1,19.12419387639551,225) translate(242.33333333333337 95)"/><use xlink:href="#c" transform="matrix(1,0,0,1,19.12419387639551,225) translate(525.6666666666667 95)"/><path d="M64.12 84.2c0-16.57 13.44-30 30-30h600c16.57 0 30 13.43 30 30v120c0 16.57-13.43 30-30 30h-600c-16.56 0-30-13.43-30-30z" stroke="#000" stroke-opacity="0" stroke-width="2" fill="#0c7cba"/><path d="M555.76 122.96h7.68v3.84h-7.68zm0 0" stroke="#000" stroke-opacity="0" stroke-width="1.01" fill="#fff"/><path d="M658.36 115.16c3.12 0 5.76-2.64 5.76-5.76V89.96c0-3.12-2.64-5.76-5.76-5.76h-27.12c-3.24 0-5.88 2.64-5.88 5.76v19.44c0 3.12 2.64 5.76 5.88 5.76H637V119h-3.84v3.96h9.72v19.32h-8.04c-1.56-1.56-3.48-2.64-5.52-3.36v-.48c0-8.64-6.96-15.48-15.48-15.48-5.28 0-10.32 2.76-13.08 7.08-2.04-.84-4.08-1.32-6.36-1.32-6.36 0-12.12 4.08-14.4 9.96-1.44.36-2.88.96-4.08 1.68h-14.4v-5.88h7.8c3.12 0 5.76-2.52 5.76-5.76V89.96c0-3.12-2.64-5.76-5.76-5.76h-19.44c-3.12 0-5.76 2.64-5.76 5.76v38.76c0 3.24 2.64 5.76 5.76 5.76h7.8v9.72h14.04c-.72 1.2-1.44 2.52-1.8 3.84h-8.4v21.36h-7.68c-3.24 0-5.88 2.52-5.88 5.76v17.4h-3.84v5.88c0 3.12 2.64 5.76 5.76 5.76h30.96c3.24 0 5.88-2.64 5.88-5.76v-5.88h-3.84v-17.4c0-3.24-2.64-5.76-5.88-5.76h-11.64V152h3.96c0 7.44 6 13.44 13.56 13.44h42.48c6.84 0 12.48-5.04 13.44-11.52h7.92v15.48h-13.56v34.8h30.96v-34.8h-13.56v-19.44H638.8c-.24-1.32-.6-2.64-1.2-3.84h9.12v-23.16h9.6V119h-3.84v-3.84zm-87.12 0h-23.28V95.84h23.28zm-21.36-27.12h19.44c1.08 0 1.92.84 1.92 1.92V92h-23.28v-2.04c0-1.08.84-1.92 1.92-1.92zm-1.92 40.68V119h23.28v9.72c0 1.08-.84 1.92-1.92 1.92h-19.44c-1.08 0-1.92-.84-1.92-1.92zm34.92 69.72c0 1.08-.96 1.92-2.04 1.92h-30.96c-1.08 0-1.92-.84-1.92-1.92v-2.04h34.92zm-3.96-23.28v17.4h-27v-17.4c0-1.08.84-1.92 1.92-1.92H577c1.08 0 1.92.84 1.92 1.92zm58.08 25.2v-11.64h23.28v11.64zm23.28-15.48H637v-11.64h23.28zm-34.92-23.28h-42.48c-5.4 0-9.72-4.32-9.72-9.6 0-4.92 3.6-9.12 8.52-9.6l1.2-.24.36-1.2c1.44-4.92 6.12-8.4 11.16-8.4 2.16 0 4.32.6 6.12 1.8l1.8 1.08.96-1.92c1.92-4.08 6-6.72 10.56-6.72 6.36 0 11.52 5.16 11.52 11.64 0 .48 0 1.08-.12 1.8l-.24 1.8 1.92.36c4.68.72 8.16 4.8 8.16 9.6 0 5.28-4.32 9.6-9.72 9.6zm5.88-73.56h27.12c1.08 0 1.92.84 1.92 1.92v13.56h-30.96V89.96c0-1.08.84-1.92 1.92-1.92zm-1.92 21.36v-1.92h30.96v1.92c0 1.08-.84 1.92-1.92 1.92h-27.12c-1.08 0-1.92-.84-1.92-1.92zm19.32 9.6h-7.8v-3.84h7.8zm0 0" stroke="#000" stroke-opacity="0" stroke-width="1.01" fill="#fff"/><path d="M640.84 177.08h3.96v3.84h-3.96zm0 0M652.48 192.56h3.84v3.84h-3.84zm0 0M648.64 177.08h7.68v3.84h-7.68zm0 0M640.84 192.56h7.8v3.84h-7.8zm0 0" stroke="#000" stroke-opacity="0" stroke-width="1.01" fill="#fff"/><path d="M458.94 183l-35.1-35.23c-.94-.8-2.3-.8-3.1 0l-8.8 8.8-3-3.1L432 130.43c.8-.8.8-2.17 0-3.12l-1.08-.93 8.67-8.68c.54-.55.67-1.1.67-1.77l-.94-10.57c-.14-1.62-1.1-3.52-2.17-4.6l-4.07-4.07c-1.08-1.1-2.98-2.04-4.6-2.18l-10.57-.94H417.47h-.13s-.14 0-.14.13h-.26s-.14 0-.14.15h-.13-.14v.13h-.13v.14c-.14 0-.14 0-.27.13l-8.68 8.68-.94-1.1c-.94-.8-2.3-.8-3.1 0l-23.04 23.05-3.12-3 8.8-8.8c.82-.8.82-2.16 0-3.1l-35.22-35.1c-.82-.95-2.17-.95-2.98 0l-20.73 20.6c-.8.8-.8 2.16 0 3.1l35.23 35.1c.4.4.95.68 1.5.68.54 0 1.08-.27 1.62-.68l8.67-8.8 3.12 3.1-22.22 22.23c-.82.83-.82 2.18 0 3l7.72 7.72-3.52 3.52c-7.45-5.42-16.26-8.26-25.6-8.26-2.6 0-5.16.13-7.73.67-.83.14-1.37.68-1.64 1.5-.27.67-.14 1.48.54 2.16l11.52 11.53-1.9 18.83c0 .68.14 1.36.68 1.76l6.1 6.1c.4.4.95.68 1.5.68h.26l18.83-1.9 11.5 11.52c.42.4.96.68 1.64.68.13 0 .4 0 .54-.14.8-.27 1.35-.8 1.5-1.63 2.02-11.24-.42-22.76-6.65-32.1l3.66-3.67 6.63 6.64c.4.4.94.55 1.5.55.53 0 1.07-.14 1.48-.55l22.23-22.22 3.12 3.12-8.8 8.67c-.83.95-.83 2.3 0 3.12l35.08 35.22c.54.4 1.1.54 1.63.54.54 0 1.08-.14 1.5-.54l20.58-20.74c.95-.8.95-2.16 0-2.98zm-77.5-71.4l-3.8 3.8-14.5-14.5 3.8-3.94 14.5 14.64zM331.7 96.96l3.8-3.8 10.03 9.9c.4.54.95.68 1.5.68.54 0 1.08-.14 1.48-.68.96-.8.96-2.17 0-2.98l-9.88-10.03 3.8-3.8 10.02 10.04c.4.4.95.53 1.5.53.54 0 1.08-.14 1.48-.54.82-.96.82-2.32 0-3.13l-9.9-9.9 3.8-3.8 14.5 14.5-5.28 5.3-6.9 6.9-5.43 5.3-14.5-14.5zm32.12 32.12l-14.5-14.5 3.8-3.8 14.5 14.5-3.8 3.8zm8.8-8.8l-1.88 2.02-14.5-14.63 3.8-3.8 14.5 14.5-1.9 1.9zm45.13-21.42l9.76 9.76c.4.4.96.67 1.5.67s1.22-.28 1.62-.68c.82-.82.82-2.17 0-2.98l-7.18-7.2 4.6.42c.55 0 1.64.54 2.04.95l3.93 3.94c.42.4.96 1.5.96 2.03l.8 9.5-7.85 7.98-17.33-17.34 7.18-7.04zm-74.25 96.07l-4.6-4.6 1.35-14.37 17.6 17.6-14.35 1.37zm29.8 8l-42.4-42.42h2.7c8.95 0 17.5 3 24.53 8.4 1.22.96 2.44 2.04 3.53 3.26 8.13 8.13 12.33 19.38 11.65 30.76zm-5.68-30.63c-.8-1.08-1.76-2.17-2.85-3.25-.67-.68-1.35-1.36-2.16-1.9l3.26-3.25 5 5.15-3.24 3.25zm14.5 1.9l-22.5-22.5 45.26-45.25 22.5 22.5-45.26 45.25zm22.62-4.2l3.8-3.8 9.9 9.9c.4.4.94.67 1.62.67.54 0 1.08-.27 1.5-.68.8-.82.8-2.17 0-3.12l-10.04-9.9 2.03-1.9 1.9-1.9 9.9 9.9c.4.4.94.68 1.48.68s1.08-.27 1.63-.68c.8-.8.8-2.16 0-2.98l-10.03-10.02 3.8-3.8 14.63 14.5-17.62 17.6-14.5-14.48zm32.12 32.1l-14.64-14.5 3.93-3.92 14.5 14.63-3.8 3.8zm6.9-6.9l-14.63-14.5 3.8-3.8 14.63 14.5-3.8 3.8zm6.78-6.9l-14.5-14.5 3.8-3.8 14.5 14.5-3.8 3.8zM331.98 195.74c-.8-.8-2.16-.8-2.98 0-.95.8-.95 2.17 0 2.98l6.1 6.1c.4.54.95.68 1.5.68.53 0 1.07-.14 1.48-.68.8-.8.8-2.17 0-2.98l-6.1-6.1z" stroke="#000" stroke-opacity="0" stroke-width=".32" fill="#fff"/><path d="M252.04 204.82c-1.68-.27-3.36-.54-4.87-.8-1.35-.3-2.7.66-2.86 2.02-.32 1.35.68 2.57 2.03 2.84l5.04.82h.33c1.18 0 2.35-.82 2.52-2.04.17-1.35-.84-2.7-2.18-2.84zM280.93 188.97c-16.13-2.04-35.95-8.54-53.08-17.35-18.48-9.48-32.1-20.73-37.96-31.43-3.88-6.92-4.55-13.56-1.7-19.66 1.85-3.93 5.04-6.78 9.75-8.27 2.52-.94 4.7-1.2 5.88-1.2.33.26.5.53.67.93 2.02 2.98 4.87 4.6 8.06 4.6.84 0 1.5-.13 2.35-.26 4.72-1.08 8.75-5.42 9.42-10.3.84-5.15-2-9.9-7.73-13-.68-.4-1.18-.68-1.85-1.1-.5-2.02-2.36-8.66-8.74-13.27-6.2-4.47-14.94-5.55-25.7-3.4-14.44 3-28.7 11.53-43.66 26.03-1 .95-1 2.44 0 3.52.5.4 1 .68 1.68.68.67 0 1.34-.27 1.68-.68 14.27-13.82 27.88-21.95 41.32-24.66 9.4-1.9 16.63-1.08 21.84 2.44 2.85 2.03 4.53 4.6 5.54 6.78-1-.4-1.85-.68-2.86-.95-1.34-.4-2.68.27-3.02 1.62-.34 1.36.34 2.7 1.68 3.12 3.2.95 6.55 2.3 9.74 4.06 3.87 2.17 5.7 5.02 5.2 8.13-.33 2.85-2.85 5.56-5.7 6.24-2.02.4-3.7-.4-5.04-2.44-4.7-6.9-11.1-12.33-17.97-15.58-1.68-.68-3.36-1.36-5.2-1.77 3-.4 5.87-.66 9.06-.4 1.33 0 2.34-.94 2.5-2.3 0-1.35-1-2.57-2.34-2.7-13.44-.68-27.72 4.33-41.5 14.76-8.56 6.5-14.44 13.15-16.12 15.3-3.7.96-7.4 2.32-10.92 3.94 1.85-2.57 4.37-5.42 7.06-8.53 1-1.1.84-2.58-.17-3.52-1-.95-2.5-.82-3.52.13-8.73 9.9-13.77 18.02-14.1 18.56-.5.82-.5 1.9.16 2.7.67 1.1 2.35 1.37 3.36.56 6.72-4.75 14.44-8.13 22.17-9.76 4.7-.95 11.42-1.36 14.62.68 2 1.35 2.67 3.25 2 4.88-1.17 2.3-4.7 3.92-10.58 2.3-6.05-1.76-11.26-1.76-15.8 0-4.2 1.62-7.38 4.47-9.4 8.4-2 3.93-2.52 8.54-1.68 13.14.84 3.93 2.7 7.6 5.54 10.3-1 2.03-2 4.2-2.52 6.78-1.67 6.9-.33 14.63 3.87 22.22 3.2 5.55 6.9 9.07 7.05 9.2.5.55 1.18.7 1.68.7.68 0 1.35-.15 1.85-.7.85-.94.85-2.56-.16-3.5 0-.15-12.93-12.75-9.57-26.84 1.68-6.78 5.7-11.65 12.1-14.36 5.37-2.3 12.1-2.98 18.47-1.77 7.73 1.5 13.6 5.42 13.1 8.95-.16.8-.5 1.5-1 1.9-.84.54-1.85.67-3.03.4-.16 0-.16-.13-.32-.13-.84-1.1-2.02-2.18-3.36-3.13-1-.68-2.52-.4-3.36.68-.68 1.22-.5 2.7.67 3.38 3.02 2.04 3.53 4.48 3.2 6.24-.35 2.3-2.03 4.47-3.87 5.15-1.68.4-3.03 0-4.54-1.5-5.37-5.55-12.1-8.12-17.47-6.36-3.53 1.08-6.05 3.93-6.55 7.58-.17 1.36.67 2.58 2.02 2.85 1.34.13 2.68-.82 2.85-2.04.34-2.44 1.85-3.4 3.2-3.66 4.2-1.36 9.4 1.9 12.42 5.15 2 2.03 4.36 2.98 6.88 2.98.84 0 1.68-.14 2.7-.4 2.5-.82 4.52-2.72 5.87-5.16 2.35 2.44 6.2 6.1 12.43 10.3 9.74 6.5 27.04 15.58 54.6 21.55h.5c1.17 0 2.18-.68 2.52-1.9.16-1.36-.68-2.58-1.85-2.98-26.7-5.7-43.34-14.37-52.75-20.6-9.9-6.64-13.77-12.06-13.94-12.2v-.13c0-.26 0-.4-.17-.67 1.5-.13 2.85-.54 4.02-1.35 1.85-1.22 2.86-3.12 3.2-5.28.33-3.53-1.35-6.92-4.88-9.63-3.02-2.16-7.4-3.92-12.1-4.74-10.9-2.03-23.5.27-30.9 8.95-4.03-4.48-5.2-11.52-2.35-17.08 1.67-3.1 6.54-9.75 19.47-5.96 8.57 2.44 14.45-.68 16.3-5 1.85-3.94.33-8.4-3.87-11.12-2.85-1.76-7.55-2.58-13.27-2.04 2.7-2.84 6.56-6.36 11.26-9.9 3.52-2.7 7.72-5.4 12.42-7.85h.17c6.2-2.43 13.1-2.16 19.8.82 4.2 1.9 8.07 4.88 11.6 8.53-5.04.82-12.77 3.66-16.63 11.8-3.36 7.72-2.86 15.84 1.85 24.25 13.77 24.8 60.97 46.88 94.74 51.2.17 0 .33.15.33.15 1.34 0 2.35-.95 2.5-2.17.18-1.34-.83-2.56-2.17-2.83z" stroke="#000" stroke-opacity="0" stroke-width=".29" fill="#fff"/><path d="M177.45 140.32l-1-2.84c-.34-1.36-1.85-2.04-3.03-1.63-1.34.4-2 1.9-1.68 3.12.34 1.08.84 2.17 1.18 3.25.5.95 1.34 1.5 2.35 1.5.34 0 .5 0 .84-.15 1.35-.54 1.86-2.03 1.35-3.25zM185.35 102.65c-.67-1.08-2.18-1.5-3.36-.67-.5.4-13.28 9.2-12.27 26.96.17 1.22 1.17 2.3 2.52 2.3h.17c1.34-.13 2.35-1.22 2.35-2.57-1-14.9 9.57-22.36 9.9-22.63 1.18-.8 1.52-2.3.68-3.4zM171.74 200.75c-1.5-.67-3.02-1.5-4.36-2.3-1.18-.68-2.7-.14-3.36.95-.68 1.22-.34 2.7.84 3.4 1.5.8 3.2 1.6 4.87 2.43.33.13.67.13 1 .13.85 0 1.85-.4 2.2-1.35.5-1.2 0-2.7-1.2-3.25zM158.8 192.76c-8.4-6.64-11.92-12.87-11.92-13-.67-1.23-2.18-1.63-3.36-.96-1.17.55-1.68 2.04-1 3.26.16.27 3.86 7.3 13.27 14.63.32.4.83.53 1.5.53s1.34-.4 1.84-.95c.84-1.08.68-2.57-.33-3.52z" stroke="#000" stroke-opacity="0" stroke-width=".29" fill="#fff"/><defs><path fill="#666" d="M154-76h158v-413H154v413zM80 0v-560h310V0H80" id="d"/><path fill="#666" d="M316-367H158v297h224V0H80v-440h310v160h-74v-87" id="e"/><path fill="#666" d="M158-180v110h232V0H80v-440h308v260H158zm0-72h158v-116H158v116" id="f"/><path fill="#666" d="M312-260v-110H80v-70h310V0H82v-260h230zm0 72H154v116h158v-116" id="g"/><path fill="#666" d="M390 0v-440H80V0h74v-370h158V0h78" id="h"/><g id="a"><use transform="matrix(0.06666666666666667,0,0,0.06666666666666667,0,0)" xlink:href="#d"/><use transform="matrix(0.06666666666666667,0,0,0.06666666666666667,31.333333333333332,0)" xlink:href="#e"/><use transform="matrix(0.06666666666666667,0,0,0.06666666666666667,62.666666666666664,0)" xlink:href="#f"/><use transform="matrix(0.06666666666666667,0,0,0.06666666666666667,94,0)" xlink:href="#g"/><use transform="matrix(0.06666666666666667,0,0,0.06666666666666667,125.33333333333333,0)" xlink:href="#h"/></g><path fill="#666" d="M274 0h-74v-488H79v-72h311v72H274V0" id="i"/><path fill="#666" d="M266-368l-108 1V0H80v-440h260v160h-74v-88" id="j"/><path fill="#666" d="M154-73v-37H80V0l308-1v-226l-230-53v-87h158v87h74v-160H80v230l232 54v83H154" id="k"/><path fill="#666" d="M154 0h236v-440H80v660h74V0zm0-368l158 1v297H154v-298" id="l"/><path fill="#666" d="M80 0v-440h310V0H80zm236-368l-158 1v297h158v-298" id="m"/><path fill="#666" d="M350 0H170v-370H80v-70h90v-130h74v130h106v70H244v300h106V0" id="n"/><g id="b"><use transform="matrix(0.06666666666666667,0,0,0.06666666666666667,0,0)" xlink:href="#i"/><use transform="matrix(0.06666666666666667,0,0,0.06666666666666667,31.333333333333332,0)" xlink:href="#j"/><use transform="matrix(0.06666666666666667,0,0,0.06666666666666667,58,0)" xlink:href="#g"/><use transform="matrix(0.06666666666666667,0,0,0.06666666666666667,89.33333333333333,0)" xlink:href="#h"/><use transform="matrix(0.06666666666666667,0,0,0.06666666666666667,120.66666666666664,0)" xlink:href="#k"/><use transform="matrix(0.06666666666666667,0,0,0.06666666666666667,152,0)" xlink:href="#l"/><use transform="matrix(0.06666666666666667,0,0,0.06666666666666667,183.33333333333334,0)" xlink:href="#m"/><use transform="matrix(0.06666666666666667,0,0,0.06666666666666667,214.66666666666669,0)" xlink:href="#j"/><use transform="matrix(0.06666666666666667,0,0,0.06666666666666667,241.33333333333334,0)" xlink:href="#n"/></g><path fill="#666" d="M220-370h170V0H80v-560h310v74H158v416h157v-231h-95v-69" id="o"/><path fill="#666" d="M390-440V0H80v-440h74v370h158v-370h78" id="p"/><g id="c"><use transform="matrix(0.06666666666666667,0,0,0.06666666666666667,0,0)" xlink:href="#o"/><use transform="matrix(0.06666666666666667,0,0,0.06666666666666667,31.333333333333332,0)" xlink:href="#j"/><use transform="matrix(0.06666666666666667,0,0,0.06666666666666667,58,0)" xlink:href="#m"/><use transform="matrix(0.06666666666666667,0,0,0.06666666666666667,89.33333333333333,0)" xlink:href="#p"/><use transform="matrix(0.06666666666666667,0,0,0.06666666666666667,120.66666666666664,0)" xlink:href="#l"/></g></defs></g></svg>